<svg width="714" height="1310" viewBox="0 0 714 1310" fill="none" xmlns="http://www.w3.org/2000/svg">
<g opacity="0.2" clip-path="url(#clip0)">
<path d="M351.864 719.802C331.353 631.921 301.399 549.691 344.303 517.417C387.125 484.456 503.109 501.066 575.133 455.583C647.845 410.019 676.68 303.049 721.47 277.874C766.341 253.387 827.168 310.695 853.083 373.529C878.998 436.362 869.699 505.106 858.587 555.585C847.778 605.679 834.935 638.58 824.481 673.987C814.329 709.01 805.96 747.309 781.958 791.991C757.269 836.754 716.562 887.597 649.588 922.719C582.229 957.538 488.218 976.333 435.638 938.622C383.442 901.214 372.375 807.683 351.864 719.802Z" fill="#3C64B1"/>
<path d="M351.864 719.802C331.353 631.921 301.399 549.691 344.303 517.417C387.125 484.456 503.109 501.066 575.133 455.583C647.845 410.019 676.68 303.049 721.47 277.874C766.341 253.387 827.168 310.695 853.083 373.529C878.998 436.362 869.699 505.106 858.587 555.585C847.778 605.679 834.935 638.58 824.481 673.987C814.329 709.01 805.96 747.309 781.958 791.991C757.269 836.754 716.562 887.597 649.588 922.719C582.229 957.538 488.218 976.333 435.638 938.622C383.442 901.214 372.375 807.683 351.864 719.802Z" fill="#E84169"/>
<path d="M351.864 719.802C331.353 631.921 301.399 549.691 344.303 517.417C387.125 484.456 503.109 501.066 575.133 455.583C647.845 410.019 676.68 303.049 721.47 277.874C766.341 253.387 827.168 310.695 853.083 373.529C878.998 436.362 869.699 505.106 858.587 555.585C847.778 605.679 834.935 638.58 824.481 673.987C814.329 709.01 805.96 747.309 781.958 791.991C757.269 836.754 716.562 887.597 649.588 922.719C582.229 957.538 488.218 976.333 435.638 938.622C383.442 901.214 372.375 807.683 351.864 719.802Z" fill="#FFB36D"/>
</g>
<defs>
<clipPath id="clip0">
<rect width="979.379" height="979.379" fill="white" transform="translate(769.969 1309.45) rotate(-141.749)"/>
</clipPath>
</defs>
</svg>
