<svg width="734" height="1198" viewBox="0 0 734 1198" fill="none" xmlns="http://www.w3.org/2000/svg">
<g opacity="0.2" clip-path="url(#clip0)">
<path d="M191.737 148.488C267.046 158.112 334.034 236.686 343.726 313.73C354.018 390.927 306.569 465.843 291.255 557.232C275.717 648.245 292.691 755.508 248.466 812.761C204.242 870.015 99.7946 877.188 36.2508 832.636C-27.2931 788.084 -49.1116 692.335 -73.1217 617.699C-96.9088 543.438 -122.512 490.067 -119.34 433.829C-115.568 377.743 -82.7166 317.592 -24.5506 258.154C33.3924 198.34 116.427 138.863 191.737 148.488Z" fill="#3C64B1"/>
<path d="M191.737 148.488C267.046 158.112 334.034 236.686 343.726 313.73C354.018 390.927 306.569 465.843 291.255 557.232C275.717 648.245 292.691 755.508 248.466 812.761C204.242 870.015 99.7946 877.188 36.2508 832.636C-27.2931 788.084 -49.1116 692.335 -73.1217 617.699C-96.9088 543.438 -122.512 490.067 -119.34 433.829C-115.568 377.743 -82.7166 317.592 -24.5506 258.154C33.3924 198.34 116.427 138.863 191.737 148.488Z" fill="#E84169"/>
<path d="M191.737 148.488C267.046 158.112 334.034 236.686 343.726 313.73C354.018 390.927 306.569 465.843 291.255 557.232C275.717 648.245 292.691 755.508 248.466 812.761C204.242 870.015 99.7946 877.188 36.2508 832.636C-27.2931 788.084 -49.1116 692.335 -73.1217 617.699C-96.9088 543.438 -122.512 490.067 -119.34 433.829C-115.568 377.743 -82.7166 317.592 -24.5506 258.154C33.3924 198.34 116.427 138.863 191.737 148.488Z" fill="#FFB36D"/>
</g>
<defs>
<clipPath id="clip0">
<rect width="873.509" height="873.509" fill="white" transform="translate(-464 446.065) rotate(-30.7077)"/>
</clipPath>
</defs>
</svg>
