<svg width="481" height="387" viewBox="0 0 481 387" fill="none" xmlns="http://www.w3.org/2000/svg">
<g clip-path="url(#clip0)">
<g opacity="0.2">
<path d="M279.463 44.2415C248.627 43.3527 219.259 35.0506 191.234 25.9668C163.209 16.8829 135.389 6.83571 105.291 2.02387C85.9341 -1.07079 63.7977 -1.50823 48.2005 7.14285C33.1889 15.4682 28.3414 29.8432 25.7342 43.1852C23.7682 53.2184 22.6156 63.7821 27.9929 73.1731C31.7109 79.6882 38.3523 85.1748 42.9348 91.42C58.876 113.157 47.6103 139.957 30.3306 161.178C22.2252 171.132 12.8232 180.63 6.56759 191.226C0.311963 201.823 -2.56953 213.973 2.89136 224.77C8.31507 235.473 21.24 243.528 35.2431 249.192C63.6815 260.686 97.1952 263.976 129.872 265.842C202.207 269.966 274.932 268.169 347.462 266.392C374.302 265.731 401.262 265.061 427.67 261.598C442.333 259.676 457.47 256.628 468.104 249.266C481.619 239.922 484.965 224.095 475.912 212.377C460.723 192.72 418.746 187.838 408.108 166.744C402.262 155.133 408.266 142.196 416.757 131.427C434.976 108.327 465.515 88.0601 467.123 61.6554C468.224 43.5063 453.547 25.3571 430.849 16.7759C407.058 7.7804 374.065 8.91123 356.488 23.8028C338.45 39.1319 306.689 45.0466 279.463 44.2415Z" fill="#3C64B1"/>
<path d="M279.463 44.2415C248.627 43.3527 219.259 35.0506 191.234 25.9668C163.209 16.8829 135.389 6.83571 105.291 2.02387C85.9341 -1.07079 63.7977 -1.50823 48.2005 7.14285C33.1889 15.4682 28.3414 29.8432 25.7342 43.1852C23.7682 53.2184 22.6156 63.7821 27.9929 73.1731C31.7109 79.6882 38.3523 85.1748 42.9348 91.42C58.876 113.157 47.6103 139.957 30.3306 161.178C22.2252 171.132 12.8232 180.63 6.56759 191.226C0.311963 201.823 -2.56953 213.973 2.89136 224.77C8.31507 235.473 21.24 243.528 35.2431 249.192C63.6815 260.686 97.1952 263.976 129.872 265.842C202.207 269.966 274.932 268.169 347.462 266.392C374.302 265.731 401.262 265.061 427.67 261.598C442.333 259.676 457.47 256.628 468.104 249.266C481.619 239.922 484.965 224.095 475.912 212.377C460.723 192.72 418.746 187.838 408.108 166.744C402.262 155.133 408.266 142.196 416.757 131.427C434.976 108.327 465.515 88.0601 467.123 61.6554C468.224 43.5063 453.547 25.3571 430.849 16.7759C407.058 7.7804 374.065 8.91123 356.488 23.8028C338.45 39.1319 306.689 45.0466 279.463 44.2415Z" fill="#E84169"/>
<path d="M279.463 44.2415C248.627 43.3527 219.259 35.0506 191.234 25.9668C163.209 16.8829 135.389 6.83571 105.291 2.02387C85.9341 -1.07079 63.7977 -1.50823 48.2005 7.14285C33.1889 15.4682 28.3414 29.8432 25.7342 43.1852C23.7682 53.2184 22.6156 63.7821 27.9929 73.1731C31.7109 79.6882 38.3523 85.1748 42.9348 91.42C58.876 113.157 47.6103 139.957 30.3306 161.178C22.2252 171.132 12.8232 180.63 6.56759 191.226C0.311963 201.823 -2.56953 213.973 2.89136 224.77C8.31507 235.473 21.24 243.528 35.2431 249.192C63.6815 260.686 97.1952 263.976 129.872 265.842C202.207 269.966 274.932 268.169 347.462 266.392C374.302 265.731 401.262 265.061 427.67 261.598C442.333 259.676 457.47 256.628 468.104 249.266C481.619 239.922 484.965 224.095 475.912 212.377C460.723 192.72 418.746 187.838 408.108 166.744C402.262 155.133 408.266 142.196 416.757 131.427C434.976 108.327 465.515 88.0601 467.123 61.6554C468.224 43.5063 453.547 25.3571 430.849 16.7759C407.058 7.7804 374.065 8.91123 356.488 23.8028C338.45 39.1319 306.689 45.0466 279.463 44.2415Z" fill="#FFB36D"/>
</g>
<g opacity="0.2">
<path d="M178.657 387C266.195 387 337.158 380.841 337.158 373.244C337.158 365.647 266.195 359.488 178.657 359.488C91.1195 359.488 20.1562 365.647 20.1562 373.244C20.1562 380.841 91.1195 387 178.657 387Z" fill="#3C64B1"/>
<path d="M178.657 387C266.195 387 337.158 380.841 337.158 373.244C337.158 365.647 266.195 359.488 178.657 359.488C91.1195 359.488 20.1562 365.647 20.1562 373.244C20.1562 380.841 91.1195 387 178.657 387Z" fill="#E84169"/>
<path d="M178.657 387C266.195 387 337.158 380.841 337.158 373.244C337.158 365.647 266.195 359.488 178.657 359.488C91.1195 359.488 20.1562 365.647 20.1562 373.244C20.1562 380.841 91.1195 387 178.657 387Z" fill="#FFB36D"/>
</g>
<g clip-path="url(#clip1)">
<path d="M469.957 202.707H469.851L408.946 228.712L325.616 264.294C325.29 264.431 324.941 264.502 324.588 264.504C324.234 264.506 323.884 264.438 323.557 264.304L237.585 228.638L175.184 202.749L175.089 202.707H174.983C173.998 202.708 173.054 203.099 172.358 203.795C171.662 204.492 171.27 205.436 171.269 206.42V367.696C171.27 368.681 171.662 369.625 172.358 370.321C173.054 371.017 173.998 371.409 174.983 371.41H469.957C470.941 371.409 471.885 371.017 472.582 370.321C473.278 369.625 473.669 368.681 473.67 367.696V206.42C473.669 205.436 473.278 204.492 472.582 203.795C471.885 203.099 470.941 202.708 469.957 202.707V202.707Z" fill="white"/>
<path d="M471.017 203.768C470.909 203.768 470.803 203.735 470.715 203.673L323.992 101.494C323.546 101.185 323.015 101.019 322.472 101.02C321.929 101.021 321.399 101.188 320.953 101.499L175.288 203.672C175.231 203.712 175.166 203.74 175.098 203.755C175.03 203.77 174.96 203.772 174.891 203.76C174.823 203.748 174.757 203.722 174.698 203.685C174.639 203.648 174.588 203.599 174.548 203.542C174.508 203.485 174.48 203.421 174.465 203.353C174.45 203.285 174.448 203.214 174.46 203.146C174.472 203.077 174.498 203.011 174.535 202.953C174.573 202.894 174.621 202.843 174.678 202.803L320.344 100.63C320.968 100.195 321.71 99.961 322.47 99.9597C323.231 99.9585 323.974 100.19 324.599 100.623L471.321 202.802C471.414 202.866 471.483 202.959 471.52 203.066C471.556 203.173 471.558 203.288 471.524 203.396C471.49 203.504 471.423 203.598 471.332 203.665C471.24 203.732 471.13 203.768 471.017 203.768L471.017 203.768Z" fill="#3F3D56"/>
<path d="M183.612 207.39L322.616 104.373L462.675 214.72L329.778 293.501L257.626 277.055L183.612 207.39Z" fill="#E6E6E6"/>
<path d="M263.717 342.161H195.045C194.623 342.162 194.206 342.079 193.816 341.918C193.426 341.757 193.072 341.521 192.774 341.223C192.475 340.925 192.239 340.571 192.077 340.182C191.916 339.792 191.833 339.375 191.833 338.953C191.833 338.531 191.916 338.114 192.077 337.724C192.239 337.335 192.475 336.981 192.774 336.683C193.072 336.385 193.426 336.149 193.816 335.988C194.206 335.827 194.623 335.744 195.045 335.745H263.717C264.138 335.744 264.556 335.827 264.946 335.988C265.336 336.149 265.69 336.385 265.988 336.683C266.286 336.981 266.523 337.335 266.685 337.724C266.846 338.114 266.929 338.531 266.929 338.953C266.929 339.375 266.846 339.792 266.685 340.182C266.523 340.571 266.286 340.925 265.988 341.223C265.69 341.521 265.336 341.757 264.946 341.918C264.556 342.079 264.138 342.162 263.717 342.161V342.161Z" fill="#D4314E"/>
<path d="M219.683 328.368H195.045C194.623 328.368 194.206 328.286 193.816 328.125C193.426 327.964 193.072 327.727 192.774 327.429C192.475 327.131 192.239 326.778 192.077 326.388C191.916 325.999 191.833 325.581 191.833 325.159C191.833 324.738 191.916 324.32 192.077 323.931C192.239 323.541 192.475 323.187 192.774 322.889C193.072 322.591 193.426 322.355 193.816 322.194C194.206 322.033 194.623 321.951 195.045 321.951H219.683C220.105 321.951 220.522 322.033 220.912 322.194C221.302 322.355 221.656 322.591 221.954 322.889C222.252 323.187 222.489 323.541 222.651 323.931C222.812 324.32 222.895 324.738 222.895 325.159C222.895 325.581 222.812 325.999 222.651 326.388C222.489 326.778 222.252 327.131 221.954 327.429C221.656 327.727 221.302 327.964 220.912 328.125C220.522 328.286 220.105 328.368 219.683 328.368Z" fill="#D4314E"/>
<path d="M324.571 264.769C324.049 264.769 323.532 264.668 323.049 264.471L237.32 228.9V117.559C237.321 116.575 237.713 115.631 238.409 114.935C239.105 114.238 240.049 113.847 241.034 113.846H405.498C406.482 113.847 407.426 114.238 408.122 114.935C408.819 115.631 409.21 116.575 409.211 117.559V228.978L409.05 229.047L326.139 264.453C325.643 264.662 325.109 264.769 324.571 264.769V264.769Z" fill="white"/>
<path d="M324.571 265.034C324.014 265.034 323.463 264.927 322.948 264.716L237.055 229.078V117.559C237.056 116.505 237.476 115.493 238.222 114.747C238.967 114.001 239.979 113.582 241.034 113.581H405.498C406.553 113.582 407.564 114.001 408.31 114.747C409.056 115.493 409.475 116.505 409.477 117.559V229.153L326.243 264.697C325.714 264.92 325.145 265.034 324.571 265.034V265.034ZM238.116 228.369L323.352 263.735C324.147 264.058 325.038 264.052 325.829 263.72L408.416 228.453V117.559C408.415 116.786 408.107 116.044 407.56 115.497C407.013 114.95 406.271 114.643 405.498 114.642H241.034C240.26 114.643 239.519 114.95 238.972 115.497C238.425 116.044 238.117 116.786 238.116 117.559V228.369Z" fill="#3F3D56"/>
<path d="M469.957 202.707H469.851L408.946 228.712L325.616 264.294C325.29 264.431 324.941 264.502 324.588 264.504C324.234 264.506 323.884 264.438 323.557 264.304L237.585 228.638L175.184 202.749L175.089 202.707H174.983C173.998 202.708 173.054 203.099 172.358 203.795C171.662 204.492 171.27 205.436 171.269 206.42V367.696C171.27 368.681 171.662 369.625 172.358 370.321C173.054 371.017 173.998 371.409 174.983 371.41H469.957C470.941 371.409 471.885 371.017 472.582 370.321C473.278 369.625 473.669 368.681 473.67 367.696V206.42C473.669 205.436 473.278 204.492 472.582 203.795C471.885 203.099 470.941 202.708 469.957 202.707V202.707ZM472.609 367.696C472.609 368.4 472.33 369.074 471.832 369.571C471.335 370.069 470.66 370.348 469.957 370.349H174.983C174.279 370.348 173.605 370.069 173.107 369.571C172.61 369.074 172.331 368.4 172.33 367.696V206.42C172.331 205.734 172.597 205.075 173.073 204.581C173.548 204.086 174.197 203.795 174.882 203.768L237.585 229.784L323.149 265.286C324.075 265.663 325.113 265.657 326.035 265.27L408.946 229.864L470.063 203.768C470.747 203.797 471.394 204.089 471.868 204.583C472.342 205.077 472.608 205.735 472.609 206.42V367.696Z" fill="#3F3D56"/>
<path d="M311.224 155.465H252.866C251.741 155.465 250.661 155.018 249.865 154.222C249.069 153.426 248.622 152.347 248.622 151.221C248.622 150.096 249.069 149.016 249.865 148.22C250.661 147.424 251.741 146.977 252.866 146.977H311.224C312.35 146.977 313.43 147.424 314.225 148.22C315.021 149.016 315.469 150.096 315.469 151.221C315.469 152.347 315.021 153.426 314.225 154.222C313.43 155.018 312.35 155.465 311.224 155.465Z" fill="#D4314E"/>
<path d="M280.984 137.428H252.866C251.741 137.428 250.661 136.981 249.865 136.185C249.069 135.389 248.622 134.309 248.622 133.184C248.622 132.058 249.069 130.979 249.865 130.183C250.661 129.387 251.741 128.94 252.866 128.94H280.984C282.11 128.94 283.189 129.387 283.985 130.183C284.781 130.979 285.228 132.058 285.228 133.184C285.228 134.309 284.781 135.389 283.985 136.185C283.189 136.981 282.11 137.428 280.984 137.428Z" fill="#D4314E"/>
<path d="M366.913 197.906H277.784C276.659 197.906 275.579 197.459 274.783 196.663C273.987 195.867 273.54 194.788 273.54 193.662C273.54 192.537 273.987 191.457 274.783 190.661C275.579 189.865 276.659 189.418 277.784 189.418H366.913C368.039 189.418 369.118 189.865 369.914 190.661C370.71 191.457 371.157 192.537 371.157 193.662C371.157 194.788 370.71 195.867 369.914 196.663C369.118 197.459 368.039 197.906 366.913 197.906Z" fill="#CCCCCC"/>
<path d="M366.913 217.536H277.784C276.659 217.536 275.579 217.088 274.783 216.292C273.987 215.497 273.54 214.417 273.54 213.291C273.54 212.166 273.987 211.086 274.783 210.29C275.579 209.495 276.659 209.047 277.784 209.047H366.913C368.039 209.047 369.118 209.495 369.914 210.29C370.71 211.086 371.157 212.166 371.157 213.291C371.157 214.417 370.71 215.497 369.914 216.292C369.118 217.088 368.039 217.536 366.913 217.536Z" fill="#CCCCCC"/>
</g>
<g clip-path="url(#clip2)">
<path d="M37.6663 230.292C37.468 229.277 37.4942 228.23 37.7432 227.226C37.9921 226.221 38.4577 225.284 39.1072 224.48C39.7566 223.675 40.5741 223.023 41.5021 222.57C42.43 222.117 43.4459 221.873 44.4781 221.855L75.9537 184.297L83.8117 194.368L51.7336 229.322C51.6477 231.062 50.928 232.71 49.7109 233.954C48.4938 235.198 46.8638 235.951 45.1298 236.07C43.3958 236.19 41.6783 235.668 40.3028 234.603C38.9272 233.538 37.9891 232.004 37.6663 230.292H37.6663Z" fill="#FFB8B8"/>
<path d="M187.133 184.065C186.912 184.384 186.717 184.72 186.55 185.07L152.182 189.995L146.963 183.353L135.934 189.938L146.301 206.14L188.217 193.755C189.323 194.758 190.707 195.401 192.187 195.596C193.666 195.792 195.169 195.532 196.497 194.85C197.825 194.168 198.915 193.097 199.621 191.779C200.327 190.462 200.616 188.96 200.449 187.474C200.283 185.988 199.669 184.587 198.69 183.459C197.71 182.331 196.411 181.529 194.966 181.159C193.52 180.788 191.996 180.868 190.597 181.387C189.198 181.906 187.99 182.84 187.133 184.065Z" fill="#FFB8B8"/>
<path d="M128.426 309.553L134.508 315.623L160.76 294.998L151.784 286.04L128.426 309.553Z" fill="#FFB8B8"/>
<path d="M140.614 332.991L121.5 313.914L128.853 306.511L140.582 318.218C141.552 319.186 142.322 320.336 142.849 321.602C143.375 322.868 143.648 324.226 143.651 325.598C143.654 326.97 143.387 328.329 142.866 329.597C142.345 330.866 141.58 332.019 140.614 332.991L140.614 332.991Z" fill="#2F2E41"/>
<path d="M96.098 367.776H104.681L108.763 334.593H96.0966L96.098 367.776Z" fill="#FFB8B8"/>
<path d="M121.232 375.763L94.259 375.764L94.2586 365.318L110.81 365.317C112.179 365.317 113.534 365.587 114.799 366.112C116.063 366.637 117.212 367.407 118.18 368.377C119.147 369.347 119.915 370.498 120.439 371.766C120.963 373.033 121.232 374.391 121.232 375.763V375.763Z" fill="#2F2E41"/>
<path d="M94.2322 342.147L84.4565 269.879C82.9265 258.957 83.4013 247.848 85.8574 237.097C87.8635 228.458 90.5736 222.473 93.9127 219.311C94.4396 218.815 95.1142 218.506 95.833 218.432L128.11 215.062C128.731 214.998 129.358 215.113 129.917 215.393C130.476 215.673 130.945 216.106 131.267 216.643L132.328 218.415C132.457 218.631 132.561 218.86 132.638 219.099L139.462 240.305C139.564 240.625 139.728 240.922 139.945 241.178C140.163 241.434 140.429 241.644 140.728 241.797C151.472 247.295 186.373 265.857 184.376 273.865C182.499 281.39 164.929 293.59 159.589 297.15C159.045 297.515 158.404 297.707 157.75 297.702C157.096 297.697 156.459 297.495 155.92 297.122L147.056 291.043C146.623 290.746 146.267 290.349 146.018 289.887C145.77 289.424 145.635 288.908 145.626 288.382C145.617 287.857 145.733 287.337 145.966 286.865C146.198 286.394 146.54 285.985 146.962 285.674L153.075 281.158C153.449 280.882 153.741 280.509 153.919 280.078C154.097 279.648 154.155 279.177 154.086 278.716C154.017 278.256 153.825 277.823 153.528 277.464C153.232 277.104 152.844 276.833 152.405 276.679L119.574 265.132C119.206 265.002 118.812 264.959 118.424 265.005C118.036 265.052 117.664 265.187 117.337 265.4C117.009 265.613 116.734 265.899 116.534 266.235C116.334 266.572 116.213 266.95 116.181 267.34L110.128 341.503C110.061 342.298 109.709 343.042 109.138 343.597C108.566 344.153 107.813 344.481 107.018 344.523L97.6516 344.993C97.5945 344.995 97.538 344.997 97.4815 344.997C96.6866 345 95.9179 344.712 95.3196 344.187C94.7214 343.663 94.3347 342.937 94.2322 342.147V342.147Z" fill="#2F2E41"/>
<path d="M109.035 155.228C118.531 155.228 126.229 147.512 126.229 137.993C126.229 128.475 118.531 120.759 109.035 120.759C99.5392 120.759 91.8412 128.475 91.8412 137.993C91.8412 147.512 99.5392 155.228 109.035 155.228Z" fill="#FFB8B8"/>
<path d="M92.9532 216.359L80.297 170.07L80.5137 169.924C80.7855 169.74 108.065 151.684 140.004 166.235L140.583 166.568L133.084 214.612C132.92 215.709 132.38 216.714 131.556 217.454C130.733 218.194 129.677 218.622 128.572 218.666L97.7122 219.856C97.6499 219.858 97.5879 219.859 97.5263 219.859C96.486 219.862 95.4739 219.52 94.6471 218.887C93.8203 218.254 93.2249 217.366 92.9532 216.359V216.359Z" fill="#CCCCCC"/>
<path d="M79.8154 200.205L69.2746 188.054C68.7669 187.47 68.481 186.726 68.4674 185.951C68.4538 185.177 68.7132 184.423 69.2001 183.821L80.2193 170.177L88.6782 172.489L93.1628 188.223L84.9858 199.932C84.7006 200.343 84.3252 200.683 83.8885 200.926C83.4517 201.169 82.9652 201.308 82.4665 201.333C82.4075 201.335 82.3489 201.337 82.2902 201.337C81.8207 201.338 81.3566 201.237 80.9294 201.042C80.5023 200.846 80.1223 200.561 79.8154 200.205V200.205Z" fill="#CCCCCC"/>
<path d="M138.105 197.674C137.606 197.649 137.119 197.51 136.683 197.267C136.246 197.024 135.871 196.685 135.585 196.274L127.408 184.564L131.341 168.002L139.13 165.873L140.583 166.568L151.371 180.163C151.858 180.764 152.117 181.518 152.104 182.293C152.09 183.067 151.804 183.812 151.297 184.395L140.756 196.546C140.449 196.902 140.069 197.188 139.642 197.383C139.215 197.578 138.75 197.679 138.281 197.678C138.223 197.678 138.164 197.676 138.105 197.674Z" fill="#CCCCCC"/>
<path d="M102.498 150.598C101.206 149.941 100.132 148.923 99.406 147.667C98.6798 146.411 98.3323 144.971 98.4056 143.521C98.4789 142.071 98.9699 140.673 99.8191 139.497C100.668 138.321 101.839 137.417 103.19 136.895C108.379 134.888 114.195 138.984 119.634 137.819C125.055 136.659 128.191 130.163 126.897 124.76C125.603 119.357 120.893 115.288 115.701 113.344C112.309 112.078 108.677 111.593 105.073 111.924C101.469 112.255 97.9857 113.394 94.8804 115.257C91.8071 117.175 89.2476 119.816 87.4243 122.951C85.601 126.085 84.5692 129.619 84.4185 133.245C84.3479 136.874 85.2323 140.457 86.9828 143.634C88.7333 146.811 91.288 149.47 94.3897 151.343C95.772 152.141 97.3809 152.783 98.9355 152.423C100.212 152.007 101.414 151.391 102.498 150.598V150.598Z" fill="#622D16"/>
<path d="M96.9257 114.837C92.3506 108.754 86.1746 103.757 78.988 101.28C71.8014 98.8022 63.5889 99.0011 56.8394 102.502C50.0899 106.003 45.0564 112.957 44.531 120.557C43.6566 133.205 54.4384 143.956 55.5449 156.586C55.8956 160.59 55.2474 164.618 53.6586 168.307C52.0698 171.997 49.5903 175.233 46.4435 177.723C43.2967 180.213 39.5814 181.879 35.6323 182.571C31.6831 183.264 27.6242 182.961 23.821 181.689C26.5298 183.924 29.6705 185.574 33.0458 186.534C36.421 187.494 39.9579 187.744 43.4342 187.269C46.9049 186.747 50.2161 185.457 53.1277 183.493C56.0394 181.529 58.4786 178.94 60.2684 175.914C62.695 171.688 63.6914 166.779 64.0784 161.918C64.6863 154.233 63.8631 146.501 61.6508 139.117C60.4415 135.088 58.8014 130.943 59.5683 126.806C60.0054 124.655 61.0636 122.68 62.6113 121.126C64.159 119.572 66.128 118.509 68.2737 118.067C71.7412 117.416 75.2866 118.477 78.5976 119.698C81.9085 120.919 85.2468 122.332 88.7737 122.412C92.3007 122.493 96.1423 120.875 97.5053 117.613L96.9257 114.837Z" fill="#622D16"/>
</g>
</g>
<defs>
<clipPath id="clip0">
<rect width="481" height="387" fill="white"/>
</clipPath>
<clipPath id="clip1">
<rect width="393.046" height="271.45" fill="white" transform="translate(80.6248 99.9597)"/>
</clipPath>
<clipPath id="clip2">
<rect width="198.813" height="346.649" fill="white" transform="translate(23.821 30.2629)"/>
</clipPath>
</defs>
</svg>
