<svg width="36" height="36" viewBox="0 0 36 36" fill="none" xmlns="http://www.w3.org/2000/svg">
<path d="M19.5 31.5H13.5V13.5H19.5V16.5C20.779 14.8729 22.7184 13.9029 24.7875 13.8555C28.5084 13.8762 31.5108 16.9041 31.5 20.625V31.5H25.5V21.375C25.26 19.6989 23.8226 18.4554 22.1295 18.459C21.3889 18.4824 20.6899 18.8067 20.1937 19.3569C19.6975 19.9072 19.447 20.6359 19.5 21.375V31.5ZM10.5 31.5H4.5V13.5H10.5V31.5ZM7.5 10.5C5.84315 10.5 4.5 9.15685 4.5 7.5C4.5 5.84315 5.84315 4.5 7.5 4.5C9.15685 4.5 10.5 5.84315 10.5 7.5C10.5 8.29565 10.1839 9.05871 9.62132 9.62132C9.05871 10.1839 8.29565 10.5 7.5 10.5Z" fill="#921B31"/>
</svg>
