<svg width="36" height="36" viewBox="0 0 36 36" fill="none" xmlns="http://www.w3.org/2000/svg">
<path d="M29.9925 10.032C31.3371 9.22812 32.3433 7.96234 32.823 6.47098C31.5595 7.22069 30.177 7.7488 28.7355 8.03248C26.7369 5.91827 23.5703 5.40377 21.0051 6.77647C18.4399 8.14916 17.1112 11.0692 17.7615 13.905C12.5859 13.6451 7.76394 11.2004 4.49549 7.17898C2.78975 10.1211 3.66142 13.8822 6.48749 15.774C5.46556 15.7411 4.46628 15.4644 3.57299 14.967C3.57299 14.994 3.57299 15.021 3.57299 15.048C3.57358 18.1127 5.73355 20.7526 8.73749 21.36C7.78959 21.6179 6.7953 21.6558 5.83049 21.471C6.67529 24.0919 9.09082 25.8874 11.844 25.941C9.56374 27.7307 6.74771 28.7012 3.84899 28.6965C3.3352 28.6972 2.82181 28.6677 2.31149 28.608C5.25508 30.4995 8.68105 31.5035 12.18 31.5C17.0479 31.5334 21.726 29.6143 25.1681 26.172C28.6101 22.7297 30.5288 18.0514 30.495 13.1835C30.495 12.9045 30.4885 12.627 30.4755 12.351C31.7362 11.4399 32.8242 10.3112 33.6885 9.01798C32.514 9.53858 31.2682 9.88037 29.9925 10.032Z" fill="#921B31"/>
</svg>
